<svg xmlns="http://www.w3.org/2000/svg" width="40" height="40"><path fill="#65757F" d="M19.991 2.25a17.7 17.7 0 0 1 12.588 5.206c3.362 3.356 5.213 7.819 5.213 12.565s-1.851 9.208-5.213 12.565a17.7 17.7 0 0 1-12.589 5.206 17.702 17.702 0 0 1-12.589-5.206A17.729 17.729 0 0 1 2.25 21.248v-2.455A17.73 17.73 0 0 1 7.401 7.455a17.7 17.7 0 0 1 12.588-5.206h.002m0-1.999h-.003A19.755 19.755 0 0 0 5.987 6.04C2.45 9.571.551 14.106.249 18.726v2.588C.551 25.934 2.45 30.469 5.987 34c3.867 3.861 8.934 5.791 14.002 5.791S30.125 37.861 33.991 34c7.733-7.721 7.733-20.239 0-27.96a19.753 19.753 0 0 0-14-5.79z"/><path fill="#65757F" d="M19.989 12.135c2.111 0 4.096.821 5.588 2.311 1.492 1.489 2.313 3.469 2.313 5.575s-.821 4.086-2.313 5.575a7.857 7.857 0 0 1-5.588 2.311 7.857 7.857 0 0 1-5.588-2.311c-1.492-1.489-2.313-3.469-2.313-5.575s.821-4.086 2.313-5.575a7.859 7.859 0 0 1 5.588-2.311m0-2a9.878 9.878 0 0 0-7.001 2.895 9.874 9.874 0 0 0 0 13.98c1.933 1.93 4.467 2.895 7.001 2.895s5.068-.965 7.001-2.895a9.874 9.874 0 0 0 0-13.98 9.878 9.878 0 0 0-7.001-2.895z"/><path fill="#65757F" fill-rule="evenodd" d="M33.119 6.49c-2.176-2.173-6.178-3.766-6.178-3.766l-2.431 9.273s.998.749 1.861 1.612a25.6 25.6 0 0 1 1.839 2.083l8.938-3.146s-1.42-3.451-4.029-6.056zM13.1 2.724S9.098 4.317 6.922 6.49c-2.61 2.606-4.029 6.056-4.029 6.056l8.938 3.146s.86-1.105 1.839-2.083c.864-.862 1.861-1.612 1.861-1.612L13.1 2.724zM28.21 24.35s-.86 1.105-1.839 2.083c-.864.862-1.861 1.612-1.861 1.612l2.431 9.273s4.002-1.593 6.178-3.766c2.61-2.606 4.029-6.056 4.029-6.056L28.21 24.35zM13.67 26.433c-.979-.978-1.839-2.083-1.839-2.083l-8.938 3.146s1.42 3.45 4.029 6.056c2.176 2.173 6.178 3.766 6.178 3.766l2.431-9.273s-.998-.75-1.861-1.612z" clip-rule="evenodd"/></svg>